<mxfile host="app.diagrams.net" modified="2023-11-29T03:50:41.409Z" agent="Mozilla/5.0 (Windows NT 10.0; Win64; x64) AppleWebKit/537.36 (KHTML, like Gecko) Chrome/119.0.0.0 Safari/537.36" version="22.1.4" etag="YMEManzIYmycylffese-" type="github">
  <diagram name="Страница — 1" id="1WaE2JM_tU7uVwCu3Bhn">
    <mxGraphModel>
      <root>
        <mxCell id="0" />
        <mxCell id="1" parent="0" />
      </root>
    </mxGraphModel>
  </diagram>
</mxfile>
